<svg width="126" height="23" viewBox="0 0 126 23" fill="none" xmlns="http://www.w3.org/2000/svg">
<path d="M7 12.548L12.46 10.084V8.964L7 6.5V7.494L11.536 9.482V9.566L7 11.554V12.548Z" fill="white"/>
<path d="M15.348 10.5L9.888 12.964V14.084L15.348 16.548V15.554L10.812 13.566V13.482L15.348 11.494V10.5Z" fill="white"/>
<circle cx="11" cy="11.5" r="10.5" stroke="white"/>
<path d="M37.8808 18.38H37.3488V17.568H37.9368C38.2915 17.568 38.5621 17.4887 38.7488 17.33C38.9355 17.1713 39.0288 16.9053 39.0288 16.532V9.084H40.0228V16.336C40.0228 16.8307 39.9295 17.2273 39.7428 17.526C39.5561 17.834 39.2995 18.0533 38.9728 18.184C38.6555 18.3147 38.2915 18.38 37.8808 18.38ZM40.0228 8.202H39.0288V6.62H40.0228V8.202ZM45.0962 16.14C44.3495 16.14 43.6915 15.986 43.1222 15.678C42.5622 15.37 42.1235 14.9453 41.8062 14.404C41.4982 13.8627 41.3442 13.242 41.3442 12.542C41.3442 11.842 41.4982 11.2213 41.8062 10.68C42.1235 10.1387 42.5622 9.714 43.1222 9.406C43.6915 9.098 44.3495 8.944 45.0962 8.944C45.8615 8.944 46.5242 9.098 47.0842 9.406C47.6442 9.714 48.0782 10.1387 48.3862 10.68C48.7035 11.2213 48.8622 11.842 48.8622 12.542C48.8622 13.242 48.7035 13.8627 48.3862 14.404C48.0782 14.9453 47.6442 15.37 47.0842 15.678C46.5242 15.986 45.8615 16.14 45.0962 16.14ZM45.0962 15.244C46.0575 15.244 46.7622 15.006 47.2102 14.53C47.6582 14.0447 47.8822 13.382 47.8822 12.542C47.8822 11.702 47.6582 11.044 47.2102 10.568C46.7622 10.0827 46.0575 9.84 45.0962 9.84C44.1535 9.84 43.4535 10.0827 42.9962 10.568C42.5482 11.044 42.3242 11.702 42.3242 12.542C42.3242 13.382 42.5482 14.0447 42.9962 14.53C43.4535 15.006 44.1535 15.244 45.0962 15.244ZM53.0827 16.14C52.4294 16.14 51.8834 16.0047 51.4447 15.734C51.0154 15.454 50.6887 15.0853 50.4647 14.628C50.2501 14.1707 50.1427 13.6713 50.1427 13.13V9.084H51.1367V12.976C51.1367 13.6853 51.3187 14.2407 51.6827 14.642C52.0467 15.0433 52.6301 15.244 53.4327 15.244C54.2821 15.244 54.9214 15.0013 55.3507 14.516C55.7894 14.0213 56.0087 13.3307 56.0087 12.444L56.2747 12.43V13.844H56.0367C55.9621 14.236 55.7987 14.6047 55.5467 14.95C55.3041 15.2953 54.9774 15.58 54.5667 15.804C54.1561 16.028 53.6614 16.14 53.0827 16.14ZM57.0027 16H56.1067V13.816L56.0087 13.746V9.084H57.0027V16ZM59.669 16H58.675V9.084H59.571V11.03L59.669 11.1V16ZM59.669 12.248H59.389V10.974H59.641C59.7063 10.6007 59.837 10.26 60.033 9.952C60.2383 9.644 60.509 9.40133 60.845 9.224C61.181 9.03733 61.5916 8.944 62.077 8.944C62.609 8.944 63.043 9.06067 63.379 9.294C63.7243 9.52733 63.9763 9.83067 64.135 10.204C64.2936 10.5773 64.373 10.9787 64.373 11.408V12.094H63.379V11.562C63.379 10.974 63.2483 10.5353 62.987 10.246C62.7256 9.95667 62.2916 9.812 61.685 9.812C60.985 9.812 60.4716 10.022 60.145 10.442C59.8276 10.862 59.669 11.464 59.669 12.248ZM72.3426 16H71.3486V12.108C71.3486 11.3893 71.1666 10.834 70.8026 10.442C70.4479 10.05 69.8739 9.854 69.0806 9.854C68.2312 9.854 67.5919 10.0967 67.1626 10.582C66.7332 11.0673 66.5186 11.758 66.5186 12.654H66.2526L66.2386 11.254H66.4906C66.5746 10.862 66.7379 10.4887 66.9806 10.134C67.2232 9.77933 67.5452 9.49467 67.9466 9.28C68.3572 9.056 68.8519 8.944 69.4306 8.944C70.0839 8.944 70.6252 9.084 71.0546 9.364C71.4839 9.63467 71.8059 9.99867 72.0206 10.456C72.2352 10.9133 72.3426 11.4173 72.3426 11.968V16ZM66.5186 16H65.5246V9.084H66.4206V11.282L66.5186 11.352V16ZM77.2501 16.14C76.5128 16.14 75.8688 15.9953 75.3181 15.706C74.7675 15.4073 74.3428 14.9873 74.0441 14.446C73.7548 13.9047 73.6101 13.27 73.6101 12.542C73.6101 11.842 73.7548 11.2213 74.0441 10.68C74.3428 10.1387 74.7628 9.714 75.3041 9.406C75.8548 9.098 76.4988 8.944 77.2361 8.944C77.9175 8.944 78.5148 9.07 79.0281 9.322C79.5508 9.574 79.9615 9.94267 80.2601 10.428C80.5588 10.904 80.7081 11.4873 80.7081 12.178C80.7081 12.2993 80.6988 12.416 80.6801 12.528C80.6708 12.6307 80.6568 12.7287 80.6381 12.822H74.2261V12.206H80.0361L79.7421 12.57C79.7515 12.4767 79.7561 12.3833 79.7561 12.29C79.7655 12.1967 79.7701 12.0987 79.7701 11.996C79.7701 11.268 79.5508 10.7173 79.1121 10.344C78.6735 9.96133 78.0435 9.77 77.2221 9.77C76.2795 9.77 75.5981 10.008 75.1781 10.484C74.7581 10.9507 74.5481 11.5947 74.5481 12.416V12.64C74.5481 13.4707 74.7581 14.124 75.1781 14.6C75.5981 15.076 76.2841 15.314 77.2361 15.314C78.0481 15.314 78.6455 15.174 79.0281 14.894C79.4201 14.6047 79.6161 14.208 79.6161 13.704V13.606H80.6101V13.704C80.6101 14.1893 80.4655 14.614 80.1761 14.978C79.8868 15.342 79.4855 15.6267 78.9721 15.832C78.4681 16.0373 77.8941 16.14 77.2501 16.14ZM82.9365 18.38H82.0685V17.47H83.1185C83.4639 17.47 83.7205 17.4093 83.8885 17.288C84.0659 17.176 84.2199 16.9753 84.3505 16.686L84.8825 15.566L84.7565 16.14L81.2565 9.084H82.3485L84.3785 13.2L85.1485 14.894H85.2325L85.9745 13.186L87.8925 9.084H88.9845L85.2325 16.966C85.0645 17.3113 84.8732 17.5867 84.6585 17.792C84.4532 18.0067 84.2105 18.156 83.9305 18.24C83.6505 18.3333 83.3192 18.38 82.9365 18.38ZM90.7545 16H89.5225V14.054H90.7545V16ZM103.893 16H102.899V12.108C102.899 11.3427 102.731 10.778 102.395 10.414C102.059 10.0407 101.522 9.854 100.785 9.854C99.954 9.854 99.3567 10.092 98.9927 10.568C98.6287 11.0347 98.4467 11.73 98.4467 12.654H98.1807L98.1527 11.24H98.3907C98.4653 10.8387 98.6053 10.4653 98.8107 10.12C99.0253 9.77467 99.324 9.49467 99.7067 9.28C100.099 9.056 100.579 8.944 101.149 8.944C101.755 8.944 102.259 9.07467 102.661 9.336C103.071 9.59733 103.379 9.95667 103.585 10.414C103.79 10.862 103.893 11.38 103.893 11.968V16ZM93.0147 16H92.0207V9.084H92.9167V11.282L93.0147 11.352V16ZM98.4467 16H97.4527V12.108C97.4527 11.3427 97.2847 10.778 96.9487 10.414C96.6127 10.0407 96.0807 9.854 95.3527 9.854C94.5127 9.854 93.9107 10.092 93.5467 10.568C93.192 11.0347 93.0147 11.73 93.0147 12.654H92.7487L92.7347 11.17H92.9727C93.038 10.778 93.1733 10.414 93.3787 10.078C93.584 9.742 93.878 9.47133 94.2607 9.266C94.6433 9.05133 95.1193 8.944 95.6887 8.944C96.2953 8.944 96.7947 9.07933 97.1867 9.35C97.588 9.61133 97.8867 9.97067 98.0827 10.428C98.2787 10.876 98.3767 11.3893 98.3767 11.968H98.4467V16ZM108.805 16.14C108.067 16.14 107.423 15.9953 106.873 15.706C106.322 15.4073 105.897 14.9873 105.599 14.446C105.309 13.9047 105.165 13.27 105.165 12.542C105.165 11.842 105.309 11.2213 105.599 10.68C105.897 10.1387 106.317 9.714 106.859 9.406C107.409 9.098 108.053 8.944 108.791 8.944C109.472 8.944 110.069 9.07 110.583 9.322C111.105 9.574 111.516 9.94267 111.815 10.428C112.113 10.904 112.263 11.4873 112.263 12.178C112.263 12.2993 112.253 12.416 112.235 12.528C112.225 12.6307 112.211 12.7287 112.193 12.822H105.781V12.206H111.591L111.297 12.57C111.306 12.4767 111.311 12.3833 111.311 12.29C111.32 12.1967 111.325 12.0987 111.325 11.996C111.325 11.268 111.105 10.7173 110.667 10.344C110.228 9.96133 109.598 9.77 108.777 9.77C107.834 9.77 107.153 10.008 106.733 10.484C106.313 10.9507 106.103 11.5947 106.103 12.416V12.64C106.103 13.4707 106.313 14.124 106.733 14.6C107.153 15.076 107.839 15.314 108.791 15.314C109.603 15.314 110.2 15.174 110.583 14.894C110.975 14.6047 111.171 14.208 111.171 13.704V13.606H112.165V13.704C112.165 14.1893 112.02 14.614 111.731 14.978C111.441 15.342 111.04 15.6267 110.527 15.832C110.023 16.0373 109.449 16.14 108.805 16.14ZM117.823 16H116.325C115.635 16 115.084 15.8367 114.673 15.51C114.272 15.1833 114.071 14.614 114.071 13.802V7.432H115.079V13.858C115.079 14.3433 115.201 14.67 115.443 14.838C115.686 15.006 116.059 15.09 116.563 15.09H117.823V16ZM117.823 9.938H112.839V9.084H117.823V9.938ZM125.031 16H124.135V14.11L124.065 14.054V11.716C124.065 11.044 123.907 10.5633 123.589 10.274C123.272 9.98467 122.731 9.84 121.965 9.84C121.228 9.84 120.663 9.98 120.271 10.26C119.889 10.5307 119.697 10.974 119.697 11.59V11.646H118.703V11.59C118.703 11.0953 118.834 10.652 119.095 10.26C119.357 9.85867 119.735 9.54133 120.229 9.308C120.724 9.06533 121.326 8.944 122.035 8.944C122.735 8.944 123.305 9.06533 123.743 9.308C124.191 9.55067 124.518 9.87733 124.723 10.288C124.929 10.6987 125.031 11.1607 125.031 11.674V16ZM120.831 16.14C120.15 16.14 119.599 15.986 119.179 15.678C118.759 15.3607 118.549 14.9267 118.549 14.376C118.549 13.9933 118.643 13.6853 118.829 13.452C119.025 13.2093 119.291 13.0227 119.627 12.892C119.963 12.7613 120.346 12.668 120.775 12.612L124.205 12.234V12.892L121.083 13.242C120.561 13.2887 120.173 13.3867 119.921 13.536C119.669 13.6853 119.543 13.942 119.543 14.306C119.543 14.6513 119.665 14.9173 119.907 15.104C120.15 15.2813 120.533 15.37 121.055 15.37C121.625 15.37 122.133 15.286 122.581 15.118C123.029 14.9407 123.389 14.6747 123.659 14.32C123.93 13.9653 124.065 13.5127 124.065 12.962L124.261 13.032V14.138H124.065C123.86 14.7727 123.473 15.2673 122.903 15.622C122.334 15.9673 121.643 16.14 120.831 16.14Z" fill="white"/>
</svg>
